<svg xmlns="http://www.w3.org/2000/svg" xmlns:xlink="http://www.w3.org/1999/xlink" width="500" zoomAndPan="magnify" viewBox="0 0 375 374.999991" height="500" preserveAspectRatio="xMidYMid meet" version="1.0"><defs><g/><clipPath id="fe57b2f299"><path d="M 92.125 131.613281 L 290.875 131.613281 L 290.875 195.363281 L 92.125 195.363281 Z M 92.125 131.613281 " clip-rule="nonzero"/></clipPath><clipPath id="66030b7555"><path d="M 73.089844 60.746094 L 326.589844 60.746094 L 326.589844 314.246094 L 73.089844 314.246094 Z M 73.089844 60.746094 " clip-rule="nonzero"/></clipPath></defs><g clip-path="url(#fe57b2f299)"><path fill="#bf820b" d="M 156.820312 154.890625 L 152.738281 155.492188 L 152.738281 158.996094 L 156.820312 158.492188 Z M 148.503906 163.386719 L 152.058594 163.195312 L 152.058594 159.714844 L 148.503906 160.148438 Z M 152.058594 155.59375 L 148.503906 156.117188 L 148.503906 159.511719 L 152.058594 159.074219 Z M 152.738281 163.15625 L 156.820312 162.941406 L 156.820312 159.132812 L 152.738281 159.628906 Z M 208.574219 159.597656 L 213.019531 159.359375 L 213.019531 155.007812 L 208.574219 155.550781 Z M 213.867188 159.316406 L 218.972656 159.042969 L 218.972656 154.28125 L 213.867188 154.90625 Z M 218.972656 148.976562 L 213.867188 149.730469 L 213.867188 154.109375 L 218.972656 153.484375 Z M 213.019531 149.859375 L 208.574219 150.515625 L 208.574219 154.757812 L 213.019531 154.210938 Z M 207.003906 188.328125 C 210.714844 187.902344 214.4375 187.535156 218.15625 187.21875 L 218.15625 168.160156 L 207.003906 169.574219 Z M 158.414062 186.078125 L 158.441406 186.128906 L 158.476562 186.109375 L 158.449219 186.058594 L 158.503906 186.027344 L 158.484375 185.992188 L 158.429688 186.023438 L 158.402344 185.96875 L 158.367188 185.988281 L 158.394531 186.039062 L 158.339844 186.070312 L 158.359375 186.105469 Z M 118.023438 186.023438 L 117.140625 183.25 L 116.953125 183.3125 L 117.214844 184.179688 L 116.90625 183.324219 L 116.644531 183.410156 L 117.183594 185.179688 L 116.5625 183.433594 L 116.402344 183.484375 L 116.742188 184.617188 L 116.339844 183.503906 L 115.648438 183.722656 L 115.886719 184.507812 L 115.605469 183.734375 L 115.441406 183.789062 L 115.78125 184.921875 L 115.378906 183.808594 L 114.558594 184.070312 L 114.875 185.113281 L 114.5 184.085938 L 114.320312 184.144531 L 114.660156 185.273438 L 114.257812 184.164062 L 113.617188 184.367188 L 113.980469 185.574219 L 113.550781 184.386719 L 113.183594 184.503906 L 113.460938 185.429688 L 113.132812 184.519531 L 112.820312 184.621094 L 113.699219 187.394531 Z M 127.746094 177.726562 L 126.546875 174.746094 L 116.6875 178.71875 L 117.886719 181.695312 Z M 127.789062 176.226562 L 128.585938 178.199219 L 125.453125 183.011719 C 125.40625 183.082031 125.398438 183.171875 125.429688 183.25 L 125.722656 183.96875 L 126.195312 183.777344 L 125.957031 183.179688 L 129.089844 178.367188 C 129.136719 178.296875 129.144531 178.210938 129.113281 178.132812 L 128.171875 175.800781 C 128.121094 175.667969 127.96875 175.601562 127.839844 175.65625 L 127.160156 175.929688 L 127.351562 176.40625 Z M 114.34375 189.414062 L 118.664062 188.042969 L 118.058594 186.128906 L 113.734375 187.5 Z M 185.328125 173.378906 C 187.644531 172.664062 189.597656 175.859375 189.597656 175.859375 L 190.101562 175.335938 C 190.101562 175.335938 186.035156 168.855469 182.914062 169.648438 C 180.226562 170.335938 178.769531 170.925781 178.769531 170.925781 L 178.210938 171.097656 C 177.992188 171.761719 177.417969 172.335938 176.628906 172.578125 C 175.839844 172.824219 175.039062 172.671875 174.484375 172.246094 L 172.585938 172.835938 L 174.011719 177.460938 L 175.722656 176.933594 C 175.722656 176.933594 176.257812 176.25 177.613281 175.761719 C 178.800781 175.335938 180.398438 175.972656 180.722656 177.023438 C 180.734375 177.050781 180.738281 177.078125 180.746094 177.105469 L 184.308594 176.007812 C 184.179688 175.46875 183.90625 173.816406 185.328125 173.378906 Z M 199.273438 180.972656 C 199.191406 180.980469 199.109375 181 199.035156 181.027344 L 198.316406 181.183594 C 198.164062 181.0625 197.953125 180.992188 197.722656 180.992188 C 197.488281 180.992188 197.28125 181.066406 197.128906 181.183594 L 196.40625 181.027344 C 196.332031 181 196.253906 180.980469 196.167969 180.972656 L 196.152344 180.972656 C 196.136719 180.972656 196.117188 180.972656 196.101562 180.972656 C 195.671875 180.972656 195.328125 181.273438 195.328125 181.644531 C 195.328125 182.015625 195.675781 182.316406 196.101562 182.316406 C 196.179688 182.316406 196.257812 182.304688 196.328125 182.285156 L 197.167969 182.175781 C 197.214844 182.203125 197.265625 182.230469 197.316406 182.253906 L 197.316406 183.035156 L 197 183.035156 C 196.9375 183.035156 196.882812 183.085938 196.882812 183.148438 C 196.882812 183.214844 196.9375 183.265625 197 183.265625 L 198.441406 183.265625 C 198.507812 183.265625 198.558594 183.214844 198.558594 183.148438 C 198.558594 183.085938 198.503906 183.035156 198.441406 183.035156 L 198.125 183.035156 L 198.125 182.253906 C 198.175781 182.230469 198.226562 182.203125 198.273438 182.175781 L 199.113281 182.285156 C 199.183594 182.304688 199.261719 182.316406 199.339844 182.316406 C 199.769531 182.316406 200.113281 182.015625 200.113281 181.644531 C 200.113281 181.273438 199.765625 180.972656 199.339844 180.972656 C 199.324219 180.972656 199.304688 180.972656 199.289062 180.972656 Z M 196.65625 183.359375 C 196.546875 183.359375 196.453125 183.453125 196.453125 183.566406 C 196.453125 183.675781 196.546875 183.769531 196.65625 183.769531 L 198.742188 183.769531 C 198.855469 183.769531 198.949219 183.675781 198.949219 183.566406 C 198.949219 183.453125 198.855469 183.359375 198.742188 183.359375 Z M 144.046875 186.851562 C 143.992188 187.234375 143.789062 187.484375 144.035156 187.890625 C 144.503906 188.667969 144.871094 188.523438 145.78125 188.542969 C 145.941406 188.550781 146.03125 188.738281 146.136719 188.855469 C 146.261719 189.015625 146.71875 188.765625 146.640625 188.621094 C 146.417969 188.34375 146.148438 188.101562 145.816406 188.070312 C 145.480469 188.042969 145.046875 188.238281 144.769531 188.046875 C 144.304688 187.726562 144.546875 187.109375 144.046875 186.851562 Z M 290.859375 195.347656 C 288.292969 195.058594 285.523438 194.78125 282.566406 194.515625 L 281.257812 165.824219 L 262.113281 146.03125 L 255.519531 144.097656 L 255.519531 139.773438 L 249.835938 136.261719 L 246.53125 137.144531 L 246.53125 141.457031 L 212.988281 131.613281 L 203.222656 144.148438 L 183.695312 146.625 L 167.195312 161.675781 L 180.121094 146.757812 L 156.0625 136.8125 L 135.925781 167.269531 L 156.257812 142.253906 L 165.226562 165.582031 L 165.667969 175.179688 C 165.730469 174.640625 166.238281 169.355469 166.503906 166.59375 L 193.71875 164.964844 L 194.378906 179.128906 C 194.484375 178.1875 195.511719 167.59375 195.8125 164.484375 L 213.980469 138.003906 L 233.445312 164.714844 L 233.445312 191.875 C 224.339844 191.613281 214.714844 191.433594 204.722656 191.351562 L 204.722656 187.183594 C 204.722656 186.097656 203.839844 185.214844 202.757812 185.214844 L 201.980469 185.214844 L 201.980469 184.730469 L 201.152344 184.730469 L 200.925781 185.0625 L 200.925781 185.082031 L 200.910156 185.082031 L 200.910156 185.21875 L 199.1875 185.21875 C 199.089844 185.039062 198.953125 184.882812 198.789062 184.753906 L 198.789062 183.882812 L 196.6875 183.882812 L 196.6875 184.753906 C 196.523438 184.882812 196.386719 185.039062 196.285156 185.21875 L 195.300781 185.21875 C 194.21875 185.21875 193.335938 186.097656 193.335938 187.183594 L 193.335938 188.046875 L 193.28125 188.046875 C 193.160156 188.046875 193.0625 188.144531 193.0625 188.265625 C 193.0625 188.390625 193.160156 188.488281 193.28125 188.488281 L 194.667969 188.488281 C 194.789062 188.488281 194.886719 188.390625 194.886719 188.265625 C 194.886719 188.148438 194.792969 188.050781 194.671875 188.046875 L 194.671875 187.183594 C 194.671875 186.835938 194.957031 186.554688 195.300781 186.554688 L 196.292969 186.554688 C 196.5625 187.03125 197.109375 187.359375 197.734375 187.359375 C 198.363281 187.359375 198.910156 187.03125 199.179688 186.554688 L 200.90625 186.554688 L 200.90625 186.707031 L 201.152344 187.078125 L 201.164062 187.054688 L 201.980469 187.054688 L 201.980469 186.554688 L 202.753906 186.554688 C 203.101562 186.554688 203.382812 186.839844 203.382812 187.183594 L 203.382812 191.34375 C 199.476562 191.3125 195.511719 191.296875 191.503906 191.296875 C 190.875 191.296875 190.246094 191.296875 189.617188 191.296875 L 184.378906 176.25 L 180.820312 177.34375 L 180.90625 177.632812 L 184.578125 191.3125 C 181.183594 191.328125 177.824219 191.351562 174.511719 191.390625 C 174.445312 190.828125 174.28125 190.214844 174.019531 189.691406 C 173.898438 189.445312 173.523438 189.316406 173.296875 189.164062 C 173.242188 189.050781 173.210938 188.949219 173.210938 188.863281 C 173.203125 187.25 172.773438 185.863281 172.355469 184.574219 C 172.179688 184.027344 172.679688 183.800781 173.386719 183.78125 C 174.21875 183.761719 174.914062 183.574219 175.566406 183.015625 C 175.734375 182.902344 175.773438 182.898438 175.6875 182.714844 C 175.769531 182.683594 175.855469 182.496094 175.839844 182.410156 C 176.34375 182.097656 176.046875 180.589844 175.800781 180.34375 C 175.746094 180.285156 175.707031 180.355469 175.699219 180.277344 C 175.683594 180.167969 175.640625 180.085938 175.539062 180.023438 C 175.691406 179.972656 175.519531 179.769531 175.359375 179.742188 C 174.554688 179.605469 173.734375 179.625 172.917969 179.570312 C 172.699219 179.515625 172.273438 179.335938 172.074219 179.441406 C 171.78125 179.589844 171.5 179.691406 171.222656 179.757812 C 171.222656 179.757812 171.222656 179.753906 171.222656 179.753906 C 171.21875 179.710938 171 179.695312 170.710938 179.710938 C 170.6875 179.675781 170.652344 179.640625 170.597656 179.648438 L 170.425781 179.664062 C 170.394531 179.664062 170.382812 179.707031 170.371094 179.746094 C 170.066406 179.785156 169.84375 179.847656 169.847656 179.890625 C 169.847656 179.894531 169.847656 179.894531 169.847656 179.894531 C 169.574219 179.898438 169.292969 179.902344 168.996094 179.914062 C 168.402344 179.679688 168.203125 179.882812 167.765625 180.121094 L 167.765625 180.117188 L 167.144531 180.265625 L 166.488281 180.414062 C 166.496094 180.722656 166.511719 181.035156 166.527344 181.351562 L 166.46875 181.355469 C 166.445312 181.101562 166.410156 180.847656 166.367188 180.59375 L 164.769531 180.683594 C 164.554688 180.695312 164.347656 180.746094 164.148438 180.839844 L 163.246094 181.230469 L 163.269531 181.488281 L 163.125 181.511719 C 163.125 181.582031 163.121094 181.652344 163.121094 181.71875 L 162.550781 181.875 L 162.5625 182.027344 L 161.34375 182.105469 L 161.195312 182.171875 L 161.351562 182.21875 L 162.574219 182.140625 L 162.582031 182.253906 L 163.171875 182.421875 C 163.179688 182.457031 163.183594 182.488281 163.191406 182.523438 L 163.347656 182.535156 L 163.367188 182.777344 L 164.285156 183.078125 C 164.492188 183.144531 164.722656 183.171875 164.933594 183.160156 L 166.542969 183.070312 C 166.539062 182.800781 166.535156 182.535156 166.523438 182.269531 L 166.585938 182.265625 C 166.609375 182.574219 166.632812 182.882812 166.664062 183.191406 L 167.378906 183.25 L 167.972656 183.351562 L 167.96875 183.3125 C 168.273438 183.378906 168.460938 183.40625 168.699219 183.632812 C 168.984375 183.636719 169.1875 183.636719 169.332031 183.671875 C 169.382812 183.683594 169.425781 183.707031 169.464844 183.738281 L 168.765625 183.710938 C 168.652344 183.707031 168.628906 183.730469 168.671875 183.835938 C 168.835938 184.273438 168.835938 184.65625 168.6875 185.027344 C 168.660156 185.089844 168.714844 185.121094 168.78125 185.132812 L 169.367188 185.152344 C 169.246094 185.191406 169.09375 185.261719 169.195312 185.355469 C 169.304688 185.472656 169.820312 185.378906 169.855469 185.660156 C 169.976562 186.6875 170.699219 187.585938 170.769531 188.605469 C 170.75 188.921875 170.652344 189.136719 170.496094 189.300781 C 170.371094 189.433594 170.242188 189.507812 170.074219 189.53125 L 170.082031 189.722656 C 169.546875 189.832031 169.019531 190.011719 168.648438 190.335938 C 168.550781 190.421875 168.574219 190.589844 168.546875 190.71875 L 167.949219 191.476562 C 165.863281 191.507812 163.792969 191.542969 161.742188 191.585938 L 158.523438 185.539062 L 156.292969 187.367188 L 154.976562 191.734375 C 154.898438 191.734375 154.816406 191.738281 154.734375 191.738281 L 156.09375 187.234375 L 158.414062 185.332031 L 148.101562 165.96875 L 146.269531 166.945312 L 146.085938 167.144531 L 146.386719 167.210938 L 146.390625 167.230469 L 146.183594 167.457031 L 146.480469 167.523438 L 146.488281 167.542969 L 146.28125 167.769531 L 146.578125 167.835938 L 146.585938 167.859375 L 146.378906 168.085938 L 146.679688 168.152344 L 146.683594 168.171875 L 146.476562 168.398438 L 146.777344 168.464844 L 146.78125 168.484375 L 146.578125 168.710938 L 146.875 168.777344 L 146.882812 168.800781 L 146.675781 169.023438 L 146.972656 169.089844 L 146.980469 169.113281 L 146.773438 169.339844 L 147.070312 169.40625 L 147.078125 169.425781 L 146.871094 169.648438 L 147.167969 169.714844 L 147.175781 169.738281 L 146.972656 169.964844 L 147.269531 170.027344 L 147.277344 170.050781 L 147.070312 170.277344 L 147.367188 170.34375 L 147.375 170.367188 L 147.167969 170.589844 L 147.464844 170.65625 L 147.472656 170.679688 L 147.265625 170.902344 L 147.5625 170.96875 L 147.570312 170.992188 L 147.363281 171.214844 L 147.660156 171.28125 L 147.667969 171.304688 L 147.464844 171.527344 L 147.757812 171.59375 L 147.765625 171.617188 L 147.5625 171.839844 L 147.855469 171.90625 L 147.863281 171.933594 L 147.660156 172.152344 L 147.957031 172.21875 L 147.960938 172.246094 L 147.757812 172.46875 L 148.050781 172.53125 L 148.0625 172.558594 L 147.859375 172.78125 L 148.148438 172.84375 L 148.160156 172.871094 L 147.957031 173.09375 L 148.25 173.15625 L 148.257812 173.183594 L 148.054688 173.40625 L 148.347656 173.46875 L 148.355469 173.496094 L 148.152344 173.71875 L 148.445312 173.78125 L 148.453125 173.808594 L 148.25 174.027344 L 148.542969 174.09375 L 148.554688 174.121094 L 148.351562 174.339844 L 148.644531 174.40625 L 148.652344 174.433594 L 148.449219 174.65625 L 148.742188 174.71875 L 148.75 174.746094 L 148.550781 174.96875 L 148.839844 175.03125 L 148.851562 175.058594 L 148.648438 175.28125 L 148.941406 175.34375 L 148.949219 175.375 L 148.746094 175.59375 L 149.039062 175.65625 L 149.046875 175.6875 L 148.847656 175.90625 L 149.136719 175.96875 L 149.144531 176 L 148.945312 176.21875 L 149.234375 176.28125 L 149.246094 176.3125 L 149.042969 176.53125 L 149.332031 176.59375 L 149.34375 176.625 L 149.140625 176.84375 L 149.429688 176.90625 L 149.441406 176.9375 L 149.242188 177.15625 L 149.53125 177.21875 L 149.539062 177.25 L 149.339844 177.46875 L 149.625 177.53125 L 149.636719 177.566406 L 149.4375 177.78125 L 149.726562 177.847656 L 149.734375 177.878906 L 149.535156 178.097656 L 149.820312 178.160156 L 149.832031 178.191406 L 149.632812 178.410156 L 149.917969 178.472656 L 149.925781 178.503906 L 149.730469 178.722656 L 150.015625 178.785156 L 150.027344 178.816406 L 149.828125 179.035156 L 150.117188 179.101562 L 150.125 179.132812 L 149.925781 179.347656 L 150.210938 179.410156 L 150.222656 179.445312 L 150.023438 179.660156 L 150.308594 179.722656 L 150.320312 179.757812 L 150.121094 179.972656 L 150.40625 180.035156 L 150.417969 180.070312 L 150.222656 180.285156 L 150.507812 180.351562 L 150.519531 180.382812 L 150.320312 180.601562 L 150.605469 180.664062 L 150.617188 180.699219 L 150.417969 180.914062 L 150.703125 180.976562 L 150.714844 181.011719 L 150.515625 181.226562 L 150.800781 181.289062 L 150.8125 181.324219 L 150.613281 181.539062 L 150.898438 181.601562 L 150.910156 181.640625 L 150.710938 181.851562 L 150.996094 181.914062 L 151.007812 181.949219 L 150.8125 182.164062 L 151.09375 182.226562 L 151.105469 182.261719 L 150.910156 182.480469 L 151.191406 182.542969 L 151.203125 182.578125 L 151.007812 182.792969 L 151.289062 182.855469 L 151.300781 182.894531 L 151.105469 183.105469 L 151.386719 183.167969 L 151.398438 183.207031 L 151.203125 183.417969 L 151.484375 183.484375 L 151.496094 183.519531 L 151.300781 183.734375 L 151.582031 183.796875 L 151.59375 183.832031 L 151.398438 184.042969 L 151.679688 184.109375 L 151.695312 184.148438 L 151.5 184.359375 L 151.78125 184.421875 L 151.792969 184.460938 L 151.597656 184.671875 L 151.878906 184.734375 L 151.890625 184.773438 L 151.699219 184.984375 L 151.976562 185.046875 L 151.988281 185.085938 L 151.796875 185.296875 L 152.074219 185.359375 L 152.089844 185.398438 L 151.894531 185.609375 L 152.171875 185.671875 L 152.1875 185.710938 L 151.992188 185.925781 L 152.273438 185.984375 L 152.285156 186.027344 L 152.089844 186.238281 L 152.371094 186.300781 L 152.382812 186.339844 L 152.191406 186.550781 L 152.46875 186.609375 L 152.480469 186.652344 L 152.289062 186.863281 L 152.566406 186.925781 L 152.578125 186.964844 L 152.386719 187.175781 L 152.664062 187.238281 L 152.675781 187.277344 L 152.484375 187.488281 L 152.761719 187.550781 L 152.777344 187.589844 L 152.582031 187.800781 L 152.859375 187.863281 L 152.875 187.90625 L 152.683594 188.113281 L 152.960938 188.171875 L 152.972656 188.214844 L 152.78125 188.425781 L 153.058594 188.488281 L 153.074219 188.53125 L 152.882812 188.738281 L 153.15625 188.800781 L 153.171875 188.84375 L 152.980469 189.050781 L 153.257812 189.113281 L 153.269531 189.15625 L 153.078125 189.363281 L 153.355469 189.425781 L 153.367188 189.46875 L 153.175781 189.675781 L 153.453125 189.738281 L 153.464844 189.785156 L 153.277344 189.992188 L 153.550781 190.050781 L 153.5625 190.09375 L 153.375 190.304688 L 153.648438 190.363281 L 153.664062 190.410156 L 153.472656 190.617188 L 153.746094 190.675781 L 153.757812 190.722656 L 153.570312 190.929688 L 153.84375 190.992188 L 153.859375 191.035156 L 153.667969 191.242188 L 153.941406 191.300781 L 153.957031 191.347656 L 153.769531 191.554688 L 154.042969 191.617188 L 154.054688 191.664062 L 153.960938 191.765625 C 152.246094 191.808594 150.550781 191.855469 148.871094 191.90625 C 148.445312 191.023438 147.976562 190.191406 147.441406 189.332031 C 147.429688 189.285156 147.375 189.261719 147.316406 189.25 L 146.894531 188.527344 C 146.863281 188.460938 146.761719 188.449219 146.632812 188.472656 C 146.660156 188.503906 146.6875 188.535156 146.710938 188.566406 C 146.714844 188.570312 146.714844 188.578125 146.71875 188.582031 C 146.765625 188.664062 146.75 188.796875 146.566406 188.917969 C 146.472656 188.976562 146.367188 189.015625 146.269531 189.019531 C 146.179688 189.023438 146.09375 189 146.042969 188.929688 C 146.035156 188.921875 145.988281 188.863281 145.96875 188.839844 C 145.945312 188.878906 145.933594 188.917969 145.9375 188.953125 L 145.9375 188.957031 C 145.9375 188.96875 145.941406 188.980469 145.949219 188.992188 C 145.953125 189 146.347656 189.808594 146.347656 189.808594 C 146.339844 189.839844 146.339844 189.875 146.347656 189.90625 C 146.351562 189.90625 146.351562 189.910156 146.351562 189.914062 C 146.355469 189.917969 146.355469 189.925781 146.359375 189.929688 C 146.359375 189.929688 146.359375 189.933594 146.359375 189.933594 C 146.632812 190.636719 146.878906 191.308594 147.175781 191.957031 C 144.40625 192.042969 141.691406 192.136719 139.027344 192.234375 C 138.113281 190.46875 136.335938 187.023438 136.132812 186.636719 C 135.863281 186.117188 136.710938 185.347656 136.085938 184.136719 C 135.792969 183.574219 135.089844 182.945312 134.496094 182.90625 L 135.113281 184.101562 C 135.339844 184.539062 135.230469 184.945312 134.6875 185.226562 C 134.144531 185.507812 133.746094 185.363281 133.519531 184.921875 L 133.070312 184.054688 C 132.761719 184.558594 132.695312 185.171875 132.988281 185.738281 C 133.613281 186.949219 134.730469 186.703125 135 187.222656 C 135.179688 187.574219 136.660156 190.441406 137.613281 192.289062 C 135.144531 192.382812 132.722656 192.488281 130.351562 192.59375 L 127.035156 184.359375 L 127.273438 183.488281 L 124.542969 184.589844 L 125.324219 185.050781 L 128.398438 192.6875 C 125.160156 192.839844 122.023438 193.007812 119 193.183594 C 118.527344 192.429688 117.980469 191.5 117.824219 191.007812 C 117.453125 189.835938 118.71875 188.273438 118.71875 188.273438 L 118.683594 188.160156 L 114.363281 189.53125 L 114.398438 189.648438 C 114.398438 189.648438 116.335938 190.195312 116.707031 191.363281 C 116.835938 191.765625 116.917969 192.550781 116.972656 193.308594 C 114.738281 193.445312 112.566406 193.585938 110.460938 193.734375 L 109.753906 192.625 C 109.753906 192.625 109.117188 192.171875 108.792969 191.667969 C 108.671875 191.488281 108.699219 190.945312 108.699219 190.945312 L 108.402344 190.476562 L 108.019531 190.703125 L 106.007812 187.34375 L 106.019531 187.085938 L 105.542969 186.21875 L 105.242188 186.402344 L 105.230469 186.40625 L 105.21875 186.414062 L 104.917969 186.59375 L 105.457031 187.421875 L 105.691406 187.53125 L 107.707031 190.890625 L 107.324219 191.121094 L 107.601562 191.601562 C 107.601562 191.601562 108.089844 191.835938 108.195312 192.023438 C 108.484375 192.550781 108.585938 193.324219 108.585938 193.324219 L 108.882812 193.847656 C 102.636719 194.304688 97.015625 194.8125 92.136719 195.359375 L 290.859375 195.359375 Z M 159.125 191.257812 C 159.351562 191.023438 159.746094 191.046875 160 191.308594 C 160.089844 191.398438 160.148438 191.503906 160.179688 191.617188 C 159.703125 191.625 159.226562 191.636719 158.753906 191.644531 Z M 158.359375 185.925781 C 158.425781 185.890625 158.507812 185.917969 158.546875 185.984375 C 158.582031 186.050781 158.554688 186.132812 158.488281 186.171875 C 158.421875 186.207031 158.335938 186.179688 158.300781 186.113281 C 158.261719 186.046875 158.289062 185.964844 158.359375 185.925781 Z M 156.488281 187.472656 C 156.554688 187.4375 156.640625 187.460938 156.675781 187.53125 C 156.710938 187.597656 156.6875 187.683594 156.621094 187.71875 C 156.550781 187.753906 156.46875 187.726562 156.433594 187.660156 C 156.394531 187.59375 156.421875 187.507812 156.488281 187.472656 Z M 135.535156 186.828125 C 135.222656 186.988281 134.90625 187.015625 134.765625 186.902344 C 134.933594 186.972656 135.226562 186.933594 135.511719 186.785156 C 135.800781 186.636719 136 186.421875 136.042969 186.246094 C 136.050781 186.425781 135.847656 186.667969 135.535156 186.828125 Z M 141.859375 179.554688 C 141.648438 179.179688 141.300781 179.304688 141.335938 179.742188 C 141.511719 182.042969 141.683594 184.332031 142.113281 186.578125 C 142.324219 187.671875 143.425781 188.484375 144.105469 188.175781 C 144.050781 188.109375 144 188.03125 143.945312 187.941406 C 143.742188 187.609375 143.8125 187.355469 143.878906 187.109375 C 143.902344 187.03125 143.921875 186.949219 143.9375 186.863281 L 141.820312 180.191406 L 144.050781 186.746094 C 144.066406 186.75 144.082031 186.75 144.09375 186.757812 C 144.394531 186.914062 144.464844 187.183594 144.53125 187.421875 C 144.546875 187.484375 144.5625 187.542969 144.582031 187.597656 C 144.902344 186.863281 145.136719 185.492188 144.691406 184.546875 C 143.847656 182.757812 142.847656 181.324219 141.859375 179.554688 Z M 156.546875 187.621094 L 156.574219 187.675781 L 156.609375 187.65625 L 156.582031 187.605469 L 156.636719 187.574219 L 156.617188 187.539062 L 156.5625 187.570312 L 156.53125 187.515625 L 156.496094 187.535156 L 156.527344 187.589844 L 156.472656 187.617188 L 156.492188 187.652344 Z M 156.546875 187.621094 " fill-opacity="1" fill-rule="nonzero"/></g><g clip-path="url(#66030b7555)"><path fill="#bf820b" d="M 199.839844 314.246094 C 129.8125 314.246094 73.089844 257.128906 73.089844 187.496094 C 73.089844 117.859375 129.8125 60.746094 199.839844 60.746094 C 269.863281 60.746094 326.589844 117.46875 326.589844 187.496094 C 326.589844 257.519531 269.472656 314.246094 199.839844 314.246094 Z M 199.839844 68.570312 C 134.117188 68.570312 80.914062 121.773438 80.914062 187.496094 C 80.914062 253.21875 134.117188 306.421875 199.839844 306.421875 C 265.5625 306.421875 318.765625 253.21875 318.765625 187.496094 C 318.765625 121.773438 265.171875 68.570312 199.839844 68.570312 Z M 199.839844 68.570312 " fill-opacity="1" fill-rule="nonzero"/></g><g fill="#bf820b" fill-opacity="1"><g transform="translate(118.928375, 214.173898)"><g><path d="M 6.757812 -5.566406 C 7.726562 -6.003906 8.367188 -6.882812 8.367188 -8.054688 C 8.367188 -9.777344 7.011719 -10.984375 5.328125 -10.984375 L 1.335938 -10.984375 L 1.335938 0 L 5.710938 0 C 7.378906 0 8.714844 -1.191406 8.714844 -2.894531 C 8.714844 -4.230469 7.910156 -5.179688 6.757812 -5.566406 Z M 7.195312 -7.964844 C 7.195312 -6.882812 6.296875 -6.058594 5.199219 -6.058594 L 2.488281 -6.058594 L 2.488281 -9.8125 L 5.199219 -9.8125 C 6.296875 -9.8125 7.195312 -9.042969 7.195312 -7.964844 Z M 5.566406 -1.171875 L 2.488281 -1.171875 L 2.488281 -4.925781 L 5.566406 -4.925781 C 6.644531 -4.925781 7.542969 -4.101562 7.542969 -3.019531 C 7.542969 -1.941406 6.644531 -1.171875 5.566406 -1.171875 Z M 5.566406 -1.171875 "/></g></g></g><g fill="#bf820b" fill-opacity="1"><g transform="translate(128.497122, 214.173898)"><g><path d="M 1.335938 0 L 4.339844 0 C 7.359375 0 9.832031 -2.453125 9.832031 -5.492188 C 9.832031 -8.53125 7.359375 -10.984375 4.339844 -10.984375 L 1.335938 -10.984375 Z M 2.488281 -1.171875 L 2.488281 -9.8125 L 4.320312 -9.8125 C 6.757812 -9.8125 8.660156 -7.964844 8.660156 -5.492188 C 8.660156 -3.019531 6.757812 -1.171875 4.320312 -1.171875 Z M 2.488281 -1.171875 "/></g></g></g><g fill="#bf820b" fill-opacity="1"><g transform="translate(139.218508, 214.173898)"><g><path d="M 4.101562 0.144531 C 5.96875 0.144531 7.488281 -0.96875 7.488281 -2.894531 C 7.488281 -6.628906 2.140625 -5.710938 2.140625 -8.332031 C 2.140625 -9.429688 3.039062 -9.960938 4.066406 -9.960938 C 4.90625 -9.960938 5.601562 -9.613281 6.042969 -8.988281 L 6.957031 -9.757812 C 6.351562 -10.527344 5.292969 -11.132812 4.027344 -11.132812 C 2.34375 -11.132812 0.96875 -10.035156 0.96875 -8.238281 C 0.96875 -4.707031 6.316406 -5.585938 6.316406 -2.855469 C 6.316406 -1.683594 5.347656 -1.023438 4.121094 -1.023438 C 2.875 -1.023438 1.976562 -1.703125 1.59375 -2.710938 L 0.53125 -2.085938 C 1.097656 -0.730469 2.472656 0.144531 4.101562 0.144531 Z M 4.101562 0.144531 "/></g></g></g><g fill="#004aad" fill-opacity="1"><g transform="translate(147.229154, 214.173898)"><g/></g></g><g fill="#004aad" fill-opacity="1"><g transform="translate(151.638459, 214.173898)"><g/></g></g><g fill="#bf820b" fill-opacity="1"><g transform="translate(156.041653, 214.173898)"><g><path d="M 4.101562 0.144531 C 5.96875 0.144531 7.488281 -0.96875 7.488281 -2.894531 C 7.488281 -6.628906 2.140625 -5.710938 2.140625 -8.332031 C 2.140625 -9.429688 3.039062 -9.960938 4.066406 -9.960938 C 4.90625 -9.960938 5.601562 -9.613281 6.042969 -8.988281 L 6.957031 -9.757812 C 6.351562 -10.527344 5.292969 -11.132812 4.027344 -11.132812 C 2.34375 -11.132812 0.96875 -10.035156 0.96875 -8.238281 C 0.96875 -4.707031 6.316406 -5.585938 6.316406 -2.855469 C 6.316406 -1.683594 5.347656 -1.023438 4.121094 -1.023438 C 2.875 -1.023438 1.976562 -1.703125 1.59375 -2.710938 L 0.53125 -2.085938 C 1.097656 -0.730469 2.472656 0.144531 4.101562 0.144531 Z M 4.101562 0.144531 "/></g></g></g><g fill="#bf820b" fill-opacity="1"><g transform="translate(164.055252, 214.173898)"><g><path d="M 6.535156 0.144531 C 9.667969 0.144531 12.175781 -2.378906 12.175781 -5.492188 C 12.175781 -8.605469 9.667969 -11.132812 6.535156 -11.132812 C 3.425781 -11.132812 0.898438 -8.605469 0.898438 -5.492188 C 0.898438 -2.378906 3.425781 0.144531 6.535156 0.144531 Z M 6.535156 -1.023438 C 4.066406 -1.023438 2.070312 -3.003906 2.070312 -5.492188 C 2.070312 -7.984375 4.066406 -9.960938 6.535156 -9.960938 C 9.027344 -9.960938 11.003906 -7.984375 11.003906 -5.492188 C 11.003906 -3.003906 9.027344 -1.023438 6.535156 -1.023438 Z M 6.535156 -1.023438 "/></g></g></g><g fill="#bf820b" fill-opacity="1"><g transform="translate(177.13681, 214.173898)"><g><path d="M 6.535156 0.144531 C 8.640625 0.144531 10.472656 -1.007812 11.441406 -2.710938 L 10.4375 -3.277344 C 9.6875 -1.921875 8.222656 -1.023438 6.535156 -1.023438 C 4.066406 -1.023438 2.070312 -3.003906 2.070312 -5.492188 C 2.070312 -7.984375 4.066406 -9.960938 6.535156 -9.960938 C 8.222656 -9.960938 9.6875 -9.0625 10.4375 -7.707031 L 11.441406 -8.277344 C 10.472656 -9.980469 8.640625 -11.132812 6.535156 -11.132812 C 3.425781 -11.132812 0.898438 -8.605469 0.898438 -5.492188 C 0.898438 -2.378906 3.425781 0.144531 6.535156 0.144531 Z M 6.535156 0.144531 "/></g></g></g><g fill="#bf820b" fill-opacity="1"><g transform="translate(189.175502, 214.173898)"><g><path d="M 1.429688 0 L 2.601562 0 L 2.601562 -10.984375 L 1.429688 -10.984375 Z M 1.429688 0 "/></g></g></g><g fill="#bf820b" fill-opacity="1"><g transform="translate(193.182295, 214.173898)"><g><path d="M 6.902344 -14.648438 L 5.585938 -14.648438 L 3.972656 -11.9375 L 4.742188 -11.9375 Z M 7.433594 -9.851562 L 7.433594 -10.984375 L 1.429688 -10.984375 L 1.429688 0 L 7.433594 0 L 7.433594 -1.136719 L 2.601562 -1.136719 L 2.601562 -4.925781 L 6.8125 -4.925781 L 6.8125 -6.058594 L 2.601562 -6.058594 L 2.601562 -9.851562 Z M 7.433594 -9.851562 "/></g></g></g><g fill="#bf820b" fill-opacity="1"><g transform="translate(201.708178, 214.173898)"><g><path d="M 7.414062 -10.984375 L 0.164062 -10.984375 L 0.164062 -9.8125 L 3.203125 -9.8125 L 3.203125 0 L 4.375 0 L 4.375 -9.8125 L 7.414062 -9.8125 Z M 7.414062 -10.984375 "/></g></g></g><g fill="#bf820b" fill-opacity="1"><g transform="translate(209.282678, 214.173898)"><g><path d="M 6.902344 -14.648438 L 5.585938 -14.648438 L 3.972656 -11.9375 L 4.742188 -11.9375 Z M 7.433594 -9.851562 L 7.433594 -10.984375 L 1.429688 -10.984375 L 1.429688 0 L 7.433594 0 L 7.433594 -1.136719 L 2.601562 -1.136719 L 2.601562 -4.925781 L 6.8125 -4.925781 L 6.8125 -6.058594 L 2.601562 -6.058594 L 2.601562 -9.851562 Z M 7.433594 -9.851562 "/></g></g></g><g fill="#bf820b" fill-opacity="1"><g transform="translate(217.80856, 214.173898)"><g/></g></g><g fill="#bf820b" fill-opacity="1"><g transform="translate(222.217866, 214.173898)"><g><path d="M 6.574219 -5.824219 L 6.574219 -4.722656 L 10.984375 -4.722656 C 10.636719 -2.601562 8.808594 -1.023438 6.589844 -1.023438 C 4.121094 -1.023438 2.125 -3.003906 2.125 -5.492188 C 2.125 -7.984375 4.121094 -9.960938 6.589844 -9.960938 C 8.257812 -9.960938 9.722656 -9.0625 10.472656 -7.707031 L 11.480469 -8.277344 C 10.527344 -9.980469 8.695312 -11.132812 6.589844 -11.132812 C 3.460938 -11.132812 0.953125 -8.605469 0.953125 -5.492188 C 0.953125 -2.378906 3.460938 0.144531 6.589844 0.144531 C 9.703125 0.144531 12.230469 -2.378906 12.230469 -5.492188 L 12.230469 -5.824219 Z M 6.574219 -5.824219 "/></g></g></g><g fill="#bf820b" fill-opacity="1"><g transform="translate(235.372608, 214.173898)"><g><path d="M 6.902344 -14.648438 L 5.585938 -14.648438 L 3.972656 -11.9375 L 4.742188 -11.9375 Z M 7.433594 -9.851562 L 7.433594 -10.984375 L 1.429688 -10.984375 L 1.429688 0 L 7.433594 0 L 7.433594 -1.136719 L 2.601562 -1.136719 L 2.601562 -4.925781 L 6.8125 -4.925781 L 6.8125 -6.058594 L 2.601562 -6.058594 L 2.601562 -9.851562 Z M 7.433594 -9.851562 "/></g></g></g><g fill="#bf820b" fill-opacity="1"><g transform="translate(243.89849, 214.173898)"><g><path d="M 9.226562 -10.984375 L 9.226562 -1.960938 L 2.433594 -10.984375 L 1.335938 -10.984375 L 1.335938 0 L 2.507812 0 L 2.507812 -9.027344 L 9.28125 0 L 10.382812 0 L 10.382812 -10.984375 Z M 9.226562 -10.984375 "/></g></g></g><g fill="#bf820b" fill-opacity="1"><g transform="translate(255.607855, 214.173898)"><g><path d="M 6.902344 -14.648438 L 5.585938 -14.648438 L 3.972656 -11.9375 L 4.742188 -11.9375 Z M 7.433594 -9.851562 L 7.433594 -10.984375 L 1.429688 -10.984375 L 1.429688 0 L 7.433594 0 L 7.433594 -1.136719 L 2.601562 -1.136719 L 2.601562 -4.925781 L 6.8125 -4.925781 L 6.8125 -6.058594 L 2.601562 -6.058594 L 2.601562 -9.851562 Z M 7.433594 -9.851562 "/></g></g></g><g fill="#bf820b" fill-opacity="1"><g transform="translate(264.133738, 214.173898)"><g><path d="M 5.785156 -5.015625 C 7.230469 -5.21875 8.332031 -6.425781 8.332031 -7.910156 C 8.332031 -9.628906 6.957031 -10.984375 5.273438 -10.984375 L 1.335938 -10.984375 L 1.335938 0 L 2.507812 0 L 2.507812 -4.960938 L 4.578125 -4.960938 L 7.691406 0 L 9.027344 0 Z M 2.507812 -6.078125 L 2.507812 -9.8125 L 5.199219 -9.8125 C 6.296875 -9.8125 7.160156 -9.042969 7.160156 -7.945312 C 7.160156 -6.828125 6.316406 -6.078125 5.199219 -6.078125 Z M 2.507812 -6.078125 "/></g></g></g><g fill="#bf820b" fill-opacity="1"><g transform="translate(273.318273, 214.173898)"><g><path d="M 7.964844 0 L 9.246094 0 L 5.273438 -10.984375 L 3.972656 -10.984375 L 0 0 L 1.28125 0 L 2.179688 -2.5625 L 7.066406 -2.5625 Z M 2.5625 -3.679688 L 4.632812 -9.59375 L 6.683594 -3.679688 Z M 2.5625 -3.679688 "/></g></g></g><g fill="#bf820b" fill-opacity="1"><g transform="translate(282.557694, 214.173898)"><g><path d="M 2.507812 -1.171875 L 2.507812 -10.984375 L 1.335938 -10.984375 L 1.335938 0 L 6.589844 0 L 6.589844 -1.171875 Z M 2.507812 -1.171875 "/></g></g></g><g fill="#bf820b" fill-opacity="1"><g transform="translate(289.308872, 214.173898)"><g><path d="M 7.433594 -9.851562 L 7.433594 -10.984375 L 1.429688 -10.984375 L 1.429688 0 L 7.433594 0 L 7.433594 -1.136719 L 2.601562 -1.136719 L 2.601562 -4.925781 L 6.8125 -4.925781 L 6.8125 -6.058594 L 2.601562 -6.058594 L 2.601562 -9.851562 Z M 7.433594 -9.851562 "/></g></g></g><g fill="#bf820b" fill-opacity="1"><g transform="translate(143.555809, 236.17415)"><g><path d="M 1.242188 0 L 4.035156 0 C 6.84375 0 9.144531 -2.28125 9.144531 -5.109375 C 9.144531 -7.933594 6.84375 -10.214844 4.035156 -10.214844 L 1.242188 -10.214844 Z M 2.316406 -1.089844 L 2.316406 -9.125 L 4.019531 -9.125 C 6.28125 -9.125 8.054688 -7.40625 8.054688 -5.109375 C 8.054688 -2.808594 6.28125 -1.089844 4.019531 -1.089844 Z M 2.316406 -1.089844 "/></g></g></g><g fill="#bf820b" fill-opacity="1"><g transform="translate(153.530621, 236.17415)"><g><path d="M 6.914062 -9.160156 L 6.914062 -10.214844 L 1.328125 -10.214844 L 1.328125 0 L 6.914062 0 L 6.914062 -1.054688 L 2.417969 -1.054688 L 2.417969 -4.582031 L 6.335938 -4.582031 L 6.335938 -5.636719 L 2.417969 -5.636719 L 2.417969 -9.160156 Z M 6.914062 -9.160156 "/></g></g></g><g fill="#bf820b" fill-opacity="1"><g transform="translate(161.4628, 236.17415)"><g/></g></g><g fill="#bf820b" fill-opacity="1"><g transform="translate(165.565072, 236.17415)"><g><path d="M 5.378906 -4.664062 C 6.726562 -4.851562 7.746094 -5.976562 7.746094 -7.355469 C 7.746094 -8.957031 6.46875 -10.214844 4.902344 -10.214844 L 1.242188 -10.214844 L 1.242188 0 L 2.332031 0 L 2.332031 -4.613281 L 4.257812 -4.613281 L 7.152344 0 L 8.394531 0 Z M 2.332031 -5.652344 L 2.332031 -9.125 L 4.835938 -9.125 C 5.859375 -9.125 6.65625 -8.410156 6.65625 -7.390625 C 6.65625 -6.351562 5.875 -5.652344 4.835938 -5.652344 Z M 2.332031 -5.652344 "/></g></g></g><g fill="#bf820b" fill-opacity="1"><g transform="translate(174.110038, 236.17415)"><g><path d="M 6.417969 -13.621094 L 5.195312 -13.621094 L 3.695312 -11.101562 L 4.410156 -11.101562 Z M 6.914062 -9.160156 L 6.914062 -10.214844 L 1.328125 -10.214844 L 1.328125 0 L 6.914062 0 L 6.914062 -1.054688 L 2.417969 -1.054688 L 2.417969 -4.582031 L 6.335938 -4.582031 L 6.335938 -5.636719 L 2.417969 -5.636719 L 2.417969 -9.160156 Z M 6.914062 -9.160156 "/></g></g></g><g fill="#bf820b" fill-opacity="1"><g transform="translate(182.042217, 236.17415)"><g><path d="M 8.582031 -10.214844 L 8.582031 -1.820312 L 2.265625 -10.214844 L 1.242188 -10.214844 L 1.242188 0 L 2.332031 0 L 2.332031 -8.394531 L 8.632812 0 L 9.65625 0 L 9.65625 -10.214844 Z M 8.582031 -10.214844 "/></g></g></g><g fill="#bf820b" fill-opacity="1"><g transform="translate(192.936204, 236.17415)"><g><path d="M 6.078125 0.136719 C 8.992188 0.136719 11.324219 -2.214844 11.324219 -5.109375 C 11.324219 -8.003906 8.992188 -10.351562 6.078125 -10.351562 C 3.183594 -10.351562 0.835938 -8.003906 0.835938 -5.109375 C 0.835938 -2.214844 3.183594 0.136719 6.078125 0.136719 Z M 6.078125 -0.953125 C 3.78125 -0.953125 1.925781 -2.792969 1.925781 -5.109375 C 1.925781 -7.425781 3.78125 -9.261719 6.078125 -9.261719 C 8.394531 -9.261719 10.234375 -7.425781 10.234375 -5.109375 C 10.234375 -2.792969 8.394531 -0.953125 6.078125 -0.953125 Z M 6.078125 -0.953125 "/></g></g></g><g fill="#bf820b" fill-opacity="1"><g transform="translate(205.106831, 236.17415)"><g><path d="M 7.40625 -10.214844 L 4.308594 -1.394531 L 1.207031 -10.214844 L 0 -10.214844 L 3.695312 0 L 4.902344 0 L 8.597656 -10.214844 Z M 7.40625 -10.214844 "/></g></g></g><g fill="#bf820b" fill-opacity="1"><g transform="translate(213.702862, 236.17415)"><g><path d="M 7.40625 0 L 8.597656 0 L 4.902344 -10.214844 L 3.695312 -10.214844 L 0 0 L 1.191406 0 L 2.027344 -2.382812 L 6.574219 -2.382812 Z M 2.382812 -3.421875 L 4.308594 -8.921875 L 6.214844 -3.421875 Z M 2.382812 -3.421875 "/></g></g></g><g fill="#bf820b" fill-opacity="1"><g transform="translate(222.298893, 236.17415)"><g><path d="M 6.894531 -10.214844 L 0.152344 -10.214844 L 0.152344 -9.125 L 2.980469 -9.125 L 2.980469 0 L 4.070312 0 L 4.070312 -9.125 L 6.894531 -9.125 Z M 6.894531 -10.214844 "/></g></g></g><g fill="#bf820b" fill-opacity="1"><g transform="translate(229.345944, 236.17415)"><g><path d="M 1.328125 0 L 2.417969 0 L 2.417969 -10.214844 L 1.328125 -10.214844 Z M 1.328125 0 "/></g></g></g><g fill="#bf820b" fill-opacity="1"><g transform="translate(233.073734, 236.17415)"><g><path d="M 6.078125 0.136719 C 8.992188 0.136719 11.324219 -2.214844 11.324219 -5.109375 C 11.324219 -8.003906 8.992188 -10.351562 6.078125 -10.351562 C 3.183594 -10.351562 0.835938 -8.003906 0.835938 -5.109375 C 0.835938 -2.214844 3.183594 0.136719 6.078125 0.136719 Z M 6.078125 -0.953125 C 3.78125 -0.953125 1.925781 -2.792969 1.925781 -5.109375 C 1.925781 -7.425781 3.78125 -9.261719 6.078125 -9.261719 C 8.394531 -9.261719 10.234375 -7.425781 10.234375 -5.109375 C 10.234375 -2.792969 8.394531 -0.953125 6.078125 -0.953125 Z M 6.078125 -0.953125 "/></g></g></g><g fill="#bf820b" fill-opacity="1"><g transform="translate(245.244361, 236.17415)"><g><path d="M 8.582031 -10.214844 L 8.582031 -1.820312 L 2.265625 -10.214844 L 1.242188 -10.214844 L 1.242188 0 L 2.332031 0 L 2.332031 -8.394531 L 8.632812 0 L 9.65625 0 L 9.65625 -10.214844 Z M 8.582031 -10.214844 "/></g></g></g><g fill="#bf820b" fill-opacity="1"><g transform="translate(155.444492, 254.614763)"><g><path d="M 1.242188 0 L 4.035156 0 C 6.84375 0 9.144531 -2.28125 9.144531 -5.109375 C 9.144531 -7.933594 6.84375 -10.214844 4.035156 -10.214844 L 1.242188 -10.214844 Z M 2.316406 -1.089844 L 2.316406 -9.125 L 4.019531 -9.125 C 6.28125 -9.125 8.054688 -7.40625 8.054688 -5.109375 C 8.054688 -2.808594 6.28125 -1.089844 4.019531 -1.089844 Z M 2.316406 -1.089844 "/></g></g></g><g fill="#bf820b" fill-opacity="1"><g transform="translate(165.419304, 254.614763)"><g><path d="M 6.914062 -9.160156 L 6.914062 -10.214844 L 1.328125 -10.214844 L 1.328125 0 L 6.914062 0 L 6.914062 -1.054688 L 2.417969 -1.054688 L 2.417969 -4.582031 L 6.335938 -4.582031 L 6.335938 -5.636719 L 2.417969 -5.636719 L 2.417969 -9.160156 Z M 6.914062 -9.160156 "/></g></g></g><g fill="#bf820b" fill-opacity="1"><g transform="translate(173.351483, 254.614763)"><g/></g></g><g fill="#bf820b" fill-opacity="1"><g transform="translate(177.453755, 254.614763)"><g><path d="M 6.28125 -5.175781 C 7.1875 -5.585938 7.78125 -6.402344 7.78125 -7.492188 C 7.78125 -9.09375 6.523438 -10.214844 4.953125 -10.214844 L 1.242188 -10.214844 L 1.242188 0 L 5.3125 0 C 6.863281 0 8.105469 -1.105469 8.105469 -2.691406 C 8.105469 -3.933594 7.355469 -4.820312 6.28125 -5.175781 Z M 6.691406 -7.40625 C 6.691406 -6.402344 5.859375 -5.636719 4.835938 -5.636719 L 2.316406 -5.636719 L 2.316406 -9.125 L 4.835938 -9.125 C 5.859375 -9.125 6.691406 -8.410156 6.691406 -7.40625 Z M 5.175781 -1.089844 L 2.316406 -1.089844 L 2.316406 -4.582031 L 5.175781 -4.582031 C 6.179688 -4.582031 7.015625 -3.8125 7.015625 -2.808594 C 7.015625 -1.804688 6.179688 -1.089844 5.175781 -1.089844 Z M 5.175781 -1.089844 "/></g></g></g><g fill="#bf820b" fill-opacity="1"><g transform="translate(186.356185, 254.614763)"><g><path d="M 4.308594 -12.925781 L 5.363281 -11.101562 L 6.199219 -11.101562 L 4.851562 -13.621094 L 3.761719 -13.621094 L 2.433594 -11.101562 L 3.253906 -11.101562 Z M 7.40625 0 L 8.597656 0 L 4.902344 -10.214844 L 3.695312 -10.214844 L 0 0 L 1.191406 0 L 2.027344 -2.382812 L 6.574219 -2.382812 Z M 2.382812 -3.421875 L 4.308594 -8.921875 L 6.214844 -3.421875 Z M 2.382812 -3.421875 "/></g></g></g><g fill="#bf820b" fill-opacity="1"><g transform="translate(194.952216, 254.614763)"><g><path d="M 6.894531 -10.214844 L 0.152344 -10.214844 L 0.152344 -9.125 L 2.980469 -9.125 L 2.980469 0 L 4.070312 0 L 4.070312 -9.125 L 6.894531 -9.125 Z M 6.894531 -10.214844 "/></g></g></g><g fill="#bf820b" fill-opacity="1"><g transform="translate(201.999267, 254.614763)"><g><path d="M 1.328125 0 L 2.417969 0 L 2.417969 -10.214844 L 1.328125 -10.214844 Z M 1.328125 0 "/></g></g></g><g fill="#bf820b" fill-opacity="1"><g transform="translate(205.727057, 254.614763)"><g><path d="M 10.25 -10.214844 L 6.316406 -1.3125 L 2.402344 -10.214844 L 1.242188 -10.214844 L 1.242188 0 L 2.332031 0 L 2.332031 -8.070312 L 5.859375 0 L 6.761719 0 L 10.320312 -8.035156 L 10.320312 0 L 11.390625 0 L 11.390625 -10.214844 Z M 10.25 -10.214844 "/></g></g></g><g fill="#bf820b" fill-opacity="1"><g transform="translate(218.357278, 254.614763)"><g><path d="M 6.914062 -9.160156 L 6.914062 -10.214844 L 1.328125 -10.214844 L 1.328125 0 L 6.914062 0 L 6.914062 -1.054688 L 2.417969 -1.054688 L 2.417969 -4.582031 L 6.335938 -4.582031 L 6.335938 -5.636719 L 2.417969 -5.636719 L 2.417969 -9.160156 Z M 6.914062 -9.160156 "/></g></g></g><g fill="#bf820b" fill-opacity="1"><g transform="translate(226.289457, 254.614763)"><g><path d="M 8.582031 -10.214844 L 8.582031 -1.820312 L 2.265625 -10.214844 L 1.242188 -10.214844 L 1.242188 0 L 2.332031 0 L 2.332031 -8.394531 L 8.632812 0 L 9.65625 0 L 9.65625 -10.214844 Z M 8.582031 -10.214844 "/></g></g></g><g fill="#bf820b" fill-opacity="1"><g transform="translate(237.183444, 254.614763)"><g><path d="M 6.894531 -10.214844 L 0.152344 -10.214844 L 0.152344 -9.125 L 2.980469 -9.125 L 2.980469 0 L 4.070312 0 L 4.070312 -9.125 L 6.894531 -9.125 Z M 6.894531 -10.214844 "/></g></g></g></svg>